<?xml version="1.0" encoding="UTF-8"?>
<svg id="Livello_2" data-name="Livello 2" xmlns="http://www.w3.org/2000/svg" viewBox="0 0 108.18 108.59">
  <defs>
    <style>
      .cls-1, .cls-2, .cls-3 {
        fill: #fff;
      }

      .cls-1, .cls-2, .cls-4, .cls-5 {
        stroke-width: 0px;
      }

      .cls-2, .cls-5 {
        fill-rule: evenodd;
      }

      .cls-3 {
        stroke: #1d1d1b;
        stroke-miterlimit: 10;
        stroke-width: 5.82px;
      }

      .cls-4, .cls-5 {
        fill: #1d1d1b;
      }
    </style>
  </defs>
  <g id="Livello_1-2" data-name="Livello 1">
    <g>
      <path class="cls-5" d="m13.96,34.39c0,16.73,9.07,11.17,1.03,59.04-1.72,10.22,9.14,16.01,19.47,15.05,43.05-3.97,28.9-2.95,43.95-2.54,12.37.34,16.81-6.26,17.46-16.6,1.43-22.76-8.51-50.19-1.29-51.59"/>
      <path class="cls-2" d="m20.05,6.47c0-2.83,79.68-14.66,74.42,13.81-.24,1.31-4.12,3.52-2.36,4.9,1.99,1.57,10.03,6.44,9.54,8.38-.3,1.19-12.08-.38-12.32.99-.76,4.26-1.14,9.4-.49,15.5,1.22,11.36,7.2,44.32-3.65,48.32-5.44,2-14.26-1.79-30.71.2-19.58,2.36-26.02,2.07-29.19-2.27-2.88-3.94-3.42-10.77-1.51-22.99,2.95-18.82-6.6-37.06-4.65-41.77.18-.44-.04,1.44-9.19,4.17-2.71-1.52-4.15-4.17-4.15-4.17l7.38-6.15,6.88-18.9Z"/>
      <path class="cls-4" d="m32.92,61.4c-.61,0-1.11-.5-1.11-1.11v-6.07c-.05-4.07,2.62-7.91,6.44-9.32.57-.22,1.21.07,1.43.65.22.57-.07,1.21-.65,1.43-8.67,3.42-2.74,14.23-6.11,14.42"/>
      <path class="cls-4" d="m33.14,69.18c-.56,0-1.02-.45-1.02-1.02v-3.52c0-.56.46-1.02,1.02-1.02s1.02.45,1.02,1.02v3.52c0,.56-.46,1.02-1.02,1.02"/>
      <path class="cls-3" d="m16.1,19.28c-1.9,2.66-14.56,9.31-13.07,14.97,2.29,4.83,9.36,4.32,13.8,2.86,2.74-.88,4.96-2.86,7.47-3.66,5.13-1,5.23,9.26,12.8,8.3,3.54-.15,5.4-3.4,6.96-5.84,1.47-2.61,3.18-1.17,5.09.48,1.98,1.7,4.33,3.99,7.03,5.3,2.6,1.46,7.09,1.51,9.03-.8,1.34-1.45,1.67-3.48,2.18-4.88.82-3.74,7.88,3.45,10.39,3.96,4.99,2.71,11.9-1.48,15.29-3.02,2.59-1.16,9.12.61,10.65.09,1.07-.27,1.65-1.02,1.54-2.83-.51-4.36-7.45-9.17-10.67-11.26-2.44-2.06-1.17-5.44-1.15-8.68.52-5.82-.27-9.89-7.65-10.37-18.59.42-43.84-2.03-64.41-.39-7.51,1.77-2.58,11.04-5.27,15.8m1.01.92c.8-.88,1.11-2.28,1.18-3.94.1-2.65-.41-6,.25-8.5,1.06-4.94,9.64-3.21,16.6-3.68,20.34.36,33.55.83,50.53.79,1.77.18,3.31.51,4.46,1.11,5.69,3.1-.98,14.38,3.93,17.76,2.37,1.41,13.43,9.21,9.41,12.36-1.59.45-8.22-1.31-10.72-.08-3.04,1.34-9.98,5.63-14.6,3.02-3.09-.83-8.9-7.38-11.23-4.4-.47.66-.72,1.75-1.1,2.91-.83,4.01-5.52,5.16-9.2,3.17-2.61-1.27-4.87-3.52-6.79-5.17-2.22-2.03-4.58-3.4-6.43-.67-1.69,2.28-2.86,5.45-6.4,5.72-6.85.96-6.79-9.73-13.02-8.32-2.13.56-4.52,2.62-7.56,3.66-3.86,1.21-10.09,1.93-12.21-2.19-.55-4.73,11.42-11.33,12.9-13.54"/>
      <path class="cls-4" d="m41.48,55.86c.23-1.09.25-1.76.97-2.26.72-.5,1.62-.66,2.49-.75,4.55-.51,9.13.31,13.7.72,4.56.41,9.37.36,13.45-1.72,1.26-.64,2.45-1.47,3.84-1.72,1.8-.32,3.69.43,5.02,1.69,1.33,1.27,2.14,2.99,2.63,4.75.63,2.28.74,4.67.79,7.04.09,4.41-.03,8.83-.37,13.23-.19,2.53-.47,5.12-1.65,7.36-2.32,4.42-7.53,6.45-12.42,7.46-5.3,1.09-10.75,1.43-16.14.99-2.52-.21-5.12-.61-7.25-1.98-2.27-1.46-3.78-3.89-4.57-6.47-.79-2.58-.91-5.31-.89-8.01.06-7.03-.62-13.36.41-20.32"/>
      <g>
        <path class="cls-1" d="m70.67,65.43c-2.09-2.81-5.47-4.21-8.93-3.73-.76.11-.64,1.23,0,1.42,2.43.72,3.35,4.4,3.58,6.58.26,2.4.15,5.21-.86,7.44-1.11,2.46-3.8,3.35-6.21,2.11-2.14-1.1-3.34-4.39-.93-5.94,2.68-1.72,5.8.52,7.93,2.07.77.56,1.5-.72.74-1.27-2.58-1.88-5.87-3.9-9.09-2.26-2.81,1.43-3.02,5.2-1.04,7.41,2.08,2.32,6.1,2.78,8.45.63s2.63-5.92,2.56-8.84c-.08-3.23-1.15-8.29-4.75-9.36v1.42c2.75-.39,5.62.83,7.27,3.05.56.75,1.84.02,1.27-.74h0Z"/>
        <path class="cls-2" d="m61.52,80.19h-1.54c-2.03,0-4.32-1.66-4.32-3.68l.15-1.98c0-2.03,3.04-2.37,5.06-2.37l1.62.59c2.55.08,4.29,1.97,2.71,3.76l.6-1.32c0,2.03-2.26,5-4.28,5Z"/>
      </g>
    </g>
  </g>
</svg>